<svg width="24" height="24" viewBox="0 0 24 24" fill="none" xmlns="http://www.w3.org/2000/svg">
<path d="M3 10V2H21V10H3ZM3 20V12H21V20H16.9C16.9333 19.8333 16.9583 19.6707 16.975 19.512C16.9917 19.3533 17 19.1827 17 19C17 17.6167 16.5167 16.4377 15.55 15.463C14.5833 14.4883 13.4 14.0007 12 14C10.6 13.9993 9.41667 14.487 8.45 15.463C7.48333 16.439 7 17.618 7 19C7 19.1833 7.00833 19.3543 7.025 19.513C7.04167 19.6717 7.06667 19.834 7.1 20H3ZM11 22V20H9V18H11V16H13V18H15V20H13V22H11Z" fill="black"/>
</svg>
