<svg width="24" height="24" viewBox="0 0 24 24" fill="none" xmlns="http://www.w3.org/2000/svg">
<path d="M2 21V3H10V21H2ZM12 21V3H20V7.1C19.8333 7.06667 19.6707 7.04167 19.512 7.025C19.3533 7.00833 19.1827 7 19 7C17.6167 7 16.4377 7.48333 15.463 8.45C14.4883 9.41667 14.0007 10.6 14 12C13.9993 13.4 14.487 14.5833 15.463 15.55C16.439 16.5167 17.618 17 19 17C19.1833 17 19.3543 16.9917 19.513 16.975C19.6717 16.9583 19.834 16.9333 20 16.9V21H12ZM18 15V13H16V11H18V9H20V11H22V13H20V15H18Z" fill="black"/>
</svg>
