<svg width="24" height="24" viewBox="0 0 24 24" fill="none" xmlns="http://www.w3.org/2000/svg">
<path d="M5.11597 11.116C4.88221 11.3508 4.75098 11.6686 4.75098 12C4.75098 12.3313 4.88221 12.6491 5.11597 12.884L10.116 17.884C10.2321 18 10.3699 18.0921 10.5216 18.155C10.6732 18.2178 10.8358 18.2501 11 18.2501C11.3315 18.2501 11.6495 18.1184 11.884 17.884C12.1184 17.6495 12.2501 17.3315 12.2501 17C12.2501 16.6684 12.1184 16.3504 11.884 16.116L9.01797 13.25L18 13.25C18.3315 13.25 18.6494 13.1183 18.8839 12.8838C19.1183 12.6494 19.25 12.3315 19.25 12C19.25 11.6684 19.1183 11.3505 18.8839 11.1161C18.6494 10.8817 18.3315 10.75 18 10.75L9.01797 10.75L11.884 7.88396C12.0001 7.76787 12.0921 7.63005 12.155 7.47837C12.2178 7.3267 12.2501 7.16413 12.2501 6.99996C12.2501 6.83578 12.2178 6.67322 12.155 6.52154C12.0921 6.36986 12.0001 6.23204 11.884 6.11596C11.7679 5.99987 11.6301 5.90778 11.4784 5.84495C11.3267 5.78213 11.1641 5.74979 11 5.74979C10.8358 5.74979 10.6732 5.78213 10.5216 5.84495C10.3699 5.90778 10.2321 5.99987 10.116 6.11596L5.11597 11.116Z" fill="black"/>
</svg>
