<svg width="24" height="24" viewBox="0 0 24 24" fill="none" xmlns="http://www.w3.org/2000/svg">
<path d="M9.17997 1H14.82L15.467 4.237C16.0027 4.47706 16.512 4.77197 16.987 5.117L20.116 4.058L22.936 8.942L20.455 11.122C20.5149 11.7058 20.5149 12.2942 20.455 12.878L22.935 15.058L20.116 19.942L16.987 18.884C16.512 19.2287 16.0026 19.5233 15.467 19.763L14.819 23H9.17997L8.53296 19.763C7.99727 19.5229 7.48788 19.228 7.01296 18.883L3.88397 19.942L1.06396 15.058L3.54496 12.878C3.48505 12.2942 3.48505 11.7058 3.54496 11.122L1.06496 8.942L3.88496 4.058L7.01296 5.116C7.48793 4.77131 7.99731 4.47674 8.53296 4.237L9.17997 1ZM10.82 3L10.278 5.705L9.75296 5.898C9.0572 6.15488 8.41053 6.52895 7.84096 7.004L7.41096 7.363L4.79596 6.478L3.61596 8.522L5.68796 10.343L5.59296 10.894C5.46853 11.6261 5.46853 12.3739 5.59296 13.106L5.68796 13.656L3.61496 15.478L4.79496 17.522L7.41096 16.637L7.84096 16.996C8.41053 17.4711 9.0572 17.8451 9.75296 18.102L10.278 18.295L10.82 21H13.18L13.722 18.295L14.247 18.102C14.9427 17.8451 15.5894 17.4711 16.159 16.996L16.589 16.637L19.205 17.522L20.385 15.478L18.313 13.657L18.407 13.106C18.5314 12.3739 18.5314 11.6261 18.407 10.894L18.313 10.344L20.385 8.522L19.205 6.478L16.589 7.363L16.159 7.004C15.5894 6.52895 14.9427 6.15488 14.247 5.898L13.722 5.705L13.18 3H10.82ZM12 9C11.2043 9 10.4413 9.31607 9.87864 9.87868C9.31604 10.4413 8.99996 11.2044 8.99996 12C8.99996 12.7956 9.31604 13.5587 9.87864 14.1213C10.4413 14.6839 11.2043 15 12 15C12.7956 15 13.5587 14.6839 14.1213 14.1213C14.6839 13.5587 15 12.7956 15 12C15 11.2044 14.6839 10.4413 14.1213 9.87868C13.5587 9.31607 12.7956 9 12 9ZM6.99996 12C6.99996 10.6739 7.52675 9.40215 8.46443 8.46447C9.40211 7.52678 10.6739 7 12 7C13.326 7 14.5978 7.52678 15.5355 8.46447C16.4732 9.40215 17 10.6739 17 12C17 13.3261 16.4732 14.5979 15.5355 15.5355C14.5978 16.4732 13.326 17 12 17C10.6739 17 9.40211 16.4732 8.46443 15.5355C7.52675 14.5979 6.99996 13.3261 6.99996 12Z" fill="black"/>
</svg>
